<?xml version="1.0" encoding="UTF-8"?>
<svg width="256px" height="256px" viewBox="0 0 256 256" version="1.1" xmlns="http://www.w3.org/2000/svg" xmlns:xlink="http://www.w3.org/1999/xlink">
    <title>rust10x-vscode</title>
    <defs>
        <rect id="path-1" x="0" y="0" width="257" height="138"></rect>
    </defs>
    <g id="rust10x-vscode" stroke="none" stroke-width="1" fill="none" fill-rule="evenodd">
        <g id="Group" transform="translate(27, 145.0253)" fill="#F7F7F7">
            <path d="M192.556366,0.974705597 C197.771941,0.974705597 202,5.20276453 202,10.4183395 L202,71.5182602 C202,76.7338352 197.771941,80.9618941 192.556366,80.9618941 L9.44363395,80.9618941 C4.22805894,80.9618941 3.19361862e-16,76.7338352 0,71.5182602 L0,10.4183395 C-6.38723725e-16,5.20276454 4.22805894,0.974705597 9.44363395,0.974705597 L192.556366,0.974705597 Z M92.8894563,16.7677371 C90.2522341,16.7677371 87.8139403,17.2735836 85.5745749,18.2852766 C83.3352094,19.2969696 81.3970785,20.8486111 79.7601819,22.9402011 C78.1232854,25.0317912 76.8444599,27.6690134 75.9237056,30.8518678 C75.0029513,34.0347222 74.5425742,37.7973108 74.5425742,42.1396336 C74.5425742,46.4819564 75.0029513,50.244545 75.9237056,53.4273994 C76.8444599,56.6102538 78.1232854,59.2474761 79.7601819,61.3390661 C81.3970785,63.4306561 83.3352094,64.9879813 85.5745749,66.0110417 C87.8139403,67.034102 90.2522341,67.5456322 92.8894563,67.5456322 C95.5266786,67.5456322 97.9763397,67.034102 100.23844,66.0110417 C102.50054,64.9879813 104.455722,63.4306561 106.103986,61.3390661 C107.75225,59.2474761 109.042442,56.6102538 109.974564,53.4273994 C110.906686,50.244545 111.372747,46.4819564 111.372747,42.1396336 C111.372747,37.7973108 110.906686,34.0347222 109.974564,30.8518678 C109.042442,27.6690134 107.75225,25.0317912 106.103986,22.9402011 C104.455722,20.8486111 102.50054,19.2969696 100.23844,18.2852766 C97.9763397,17.2735836 95.5266786,16.7677371 92.8894563,16.7677371 Z M56.038298,17.2792672 L47.3081831,17.2792672 L31.8258698,30.2721336 L35.167867,34.7053951 C35.3952137,35.0009459 35.7419175,35.2794456 36.2079783,35.5408944 C36.6740391,35.8023432 37.2026203,35.9330675 37.7937219,35.9330675 C38.134742,35.9330675 38.4871294,35.8705472 38.8508842,35.7455065 C39.214639,35.6204658 39.5783938,35.41017 39.9421486,35.1146193 L45.5689805,30.4426437 C45.5007765,31.7839895 45.4666744,33.0684986 45.4666744,34.296171 L45.4666744,59.3611494 L35.9181112,59.3611494 L35.9181112,67 L64.2227808,67 L64.2227808,59.3611494 L56.038298,59.3611494 L56.038298,17.2792672 Z M131.513919,17.3133693 L119.987439,17.3133693 L135.367447,41.4575934 L119.373603,67 L130.149839,67 C130.831879,67 131.400246,66.8124389 131.854939,66.4373168 C132.309633,66.0621947 132.673388,65.6359195 132.946204,65.1584914 L142.221951,49.062342 C142.449298,48.6985872 142.65391,48.2666284 142.835787,47.7664655 L152.793574,65.1584914 C153.066391,65.6586542 153.435829,66.090613 153.90189,66.4543678 C154.367951,66.8181226 154.976103,67 155.726347,67 L167.252827,67 L151.327188,40.9460632 L166.911807,17.3133693 L155.862755,17.3133693 C154.885164,17.3133693 154.112186,17.7907974 153.543819,18.7456537 L144.881908,33.6141307 C144.70003,33.9096815 144.535204,34.1938649 144.387429,34.466681 C144.239653,34.7394971 144.108929,35.0236806 143.995255,35.3192313 L134.105672,18.5751437 C133.832856,18.1204502 133.520254,17.7964811 133.167867,17.6032364 C132.815479,17.4099916 132.264164,17.3133693 131.513919,17.3133693 Z M92.8894563,25.2591379 C93.821578,25.2591379 94.7423323,25.4921683 95.6517193,25.9582292 C96.5611062,26.42429 97.3738708,27.2825239 98.0900131,28.532931 C98.8061553,29.7833381 99.3802059,31.5054897 99.8121647,33.6993858 C100.244123,35.8932818 100.460103,38.7066978 100.460103,42.1396336 C100.460103,45.5953041 100.244123,48.4144037 99.8121647,50.5969325 C99.3802059,52.7794612 98.8061553,54.5016128 98.0900131,55.7633872 C97.3738708,57.0251616 96.5611062,57.8890793 95.6517193,58.3551401 C94.7423323,58.8212009 93.821578,59.0542313 92.8894563,59.0542313 C91.9573347,59.0542313 91.042264,58.8212009 90.1442444,58.3551401 C89.2462248,57.8890793 88.4505112,57.0251616 87.7571036,55.7633872 C87.063696,54.5016128 86.5066965,52.7794612 86.086105,50.5969325 C85.6655136,48.4144037 85.4552178,45.5953041 85.4552178,42.1396336 C85.4552178,38.7066978 85.6655136,35.8932818 86.086105,33.6993858 C86.5066965,31.5054897 87.063696,29.7833381 87.7571036,28.532931 C88.4505112,27.2825239 89.2462248,26.42429 90.1442444,25.9582292 C91.042264,25.4921683 91.9573347,25.2591379 92.8894563,25.2591379 Z" id="Rectangle-3"></path>
        </g>
        <g id="ico_rust-2">
            <mask id="mask-2" fill="white">
                <use xlink:href="#path-1"></use>
            </mask>
            <g id="Rectangle-Copy"></g>
            <g id="Group-2" mask="url(#mask-2)">
                <g transform="translate(11, 16)">
                    <path d="M118.005248,0 C119.282252,0 120.467013,0.688155949 121.138243,1.81914948 L127.761582,12.9859403 C128.802038,13.0764805 129.839715,13.1852298 130.876886,13.3043483 L139.453766,3.70127244 C140.321866,2.73112682 141.609485,2.29739384 142.861217,2.55333424 C144.11674,2.81155078 145.146835,3.72985077 145.593143,4.98046861 L149.985451,17.2473985 C151.005943,17.5531613 152.013798,17.8730868 153.017105,18.2064162 L163.20711,10.5552652 C164.239985,9.77707491 165.588257,9.61142178 166.764678,10.1227968 C167.944637,10.6311369 168.787212,11.7446799 168.992423,13.0549835 L171.011924,25.9905956 C171.947754,26.4971653 172.873222,27.0206798 173.79313,27.5492524 L185.222737,22.1112776 C186.384753,21.5599436 187.733277,21.6717278 188.795721,22.4137526 C189.85867,23.1512252 190.477839,24.4139825 190.430327,25.7427481 L189.989327,38.8703155 C190.805366,39.5488611 191.61155,40.2413164 192.405097,40.9431293 L204.656555,37.9287482 C205.898432,37.62425 207.204246,38.0132187 208.102673,38.9530156 C209.00666,39.8963533 209.375887,41.2559734 209.082982,42.5538846 L206.192347,55.3407882 C206.867621,56.1667777 207.528994,57.0074357 208.180259,57.8561866 L220.758234,57.3986805 C222.038524,57.3483523 223.239965,57.9955376 223.946828,59.1040225 C224.657482,60.2069435 224.770196,61.619168 224.234678,62.834632 L219.027594,74.7646917 C219.532785,75.722192 220.036207,76.6880382 220.515874,77.6690588 L232.91012,79.7734857 C234.168929,79.9889612 235.233141,80.8683137 235.719631,82.0949056 C236.205616,83.3275671 236.054741,84.7324573 235.306431,85.8133756 L225.410585,95.2422038 L218.374612,110.273062 C189.184123,99.0745329 143.916674,97.6513393 122.287747,126.993515 C119.565654,126.930881 116.835501,126.848399 114.110001,126.754118 C91.1741062,95.996958 42.0874354,99.3709367 13.3828039,112.279056 C13.3577159,112.184016 13.3314424,112.087684 13.305191,111.991194 L13.1132557,111.281495 C12.8899276,110.450882 12.6689223,109.612256 12.4527083,108.778193 L12.268613,108.064694 C10.6842874,101.895799 9.40328201,96.1770186 9.43751116,96.0637051 L0.692944915,85.8133756 C-0.0498051309,84.7324573 -0.2077564,83.3275671 0.278733508,82.0949056 C0.76825608,80.865026 1.82994133,79.9861793 3.08900248,79.7734857 L15.4824908,77.6690588 C15.9662008,76.6880382 16.4688649,75.722192 16.9750671,74.7646917 L11.7641916,62.834632 C11.2357498,61.619168 11.3431567,60.2069435 12.0538111,59.1040225 C12.7629491,57.9955376 13.9744985,57.3612505 15.2439212,57.3986805 L27.8221494,57.8561866 C28.4713923,57.0074357 29.1337767,56.1700654 29.8032374,55.3407882 L26.9184154,42.5538846 C26.6267742,41.2559734 26.994232,39.8963533 27.9002405,38.9530156 C28.8009418,38.0132187 30.1052402,37.6265261 31.3498962,37.9287482 L43.599333,40.9431293 C44.396671,40.2413164 45.201338,39.5488611 46.0148502,38.8703155 L45.5761247,25.7427481 C45.5281075,24.4139825 46.1485401,23.1512252 47.2102254,22.4137526 C48.2673616,21.6717278 49.6219517,21.5576674 50.7824513,22.1112776 L62.2110469,27.5492524 C63.133735,27.0178978 64.0594558,26.4971653 64.9945273,25.9905956 L67.0155454,13.0549835 C67.2192394,11.7446799 68.0651,10.6311369 69.2402574,10.1227968 C70.4194584,9.60914563 71.7674777,9.77429295 72.8031326,10.5552652 L82.9898522,18.2064162 C83.9956859,17.87511 85.0040468,17.5531613 86.0217584,17.2473985 L90.4173527,4.98046861 C90.8623962,3.72985077 91.8932493,2.81509146 93.1482669,2.55333424 C94.3957029,2.29739384 95.6881233,2.73112682 96.5567289,3.70127244 L105.134873,13.3043483 C106.170275,13.1852298 107.212753,13.0764805 108.253715,12.9859403 L114.878571,1.81914948 C115.543988,0.688155949 116.731276,0 118.005248,0 Z M89.0841584,91.1805234 C96.9883921,91.1805234 103.39604,83.7224916 103.39604,74.5225432 C103.39604,65.3225947 96.9883921,57.8645629 89.0841584,57.8645629 C81.1799247,57.8645629 74.7722772,65.3225947 74.7722772,74.5225432 C74.7722772,83.7224916 81.1799247,91.1805234 89.0841584,91.1805234 Z M144.579208,91.1805234 C152.483442,91.1805234 158.891089,83.7224916 158.891089,74.5225432 C158.891089,65.3225947 152.483442,57.8645629 144.579208,57.8645629 C136.674974,57.8645629 130.267327,65.3225947 130.267327,74.5225432 C130.267327,83.7224916 136.674974,91.1805234 144.579208,91.1805234 Z" id="Path-2" fill="#FFFFFF" fill-rule="nonzero"></path>
                    <g id="eye-left" stroke-width="1" fill="none" fill-rule="evenodd" transform="translate(79, 60)">
                        <path d="M5.99974782,17 C2.68692473,17 0,13.1935686 0,8.5002597 C0,3.80539261 2.68692473,0 5.99974782,0 C9.31357962,0 12,3.80539261 12,8.5002597 C12,13.1935686 9.31357962,17 5.99974782,17 Z" id="Path" fill="#FFFFFF" fill-rule="nonzero"></path>
                    </g>
                    <g id="eye-right" stroke-width="1" fill="none" fill-rule="evenodd" transform="translate(135, 60)">
                        <path d="M5.99974782,17 C2.68692473,17 0,13.1935686 0,8.5002597 C0,3.80539261 2.68692473,0 5.99974782,0 C9.31357962,0 12,3.80539261 12,8.5002597 C12,13.1935686 9.31357962,17 5.99974782,17 Z" id="Path" fill="#FFFFFF" fill-rule="nonzero"></path>
                    </g>
                    <g id="Group-3" stroke-width="1" fill="none" fill-rule="evenodd" transform="translate(7, 113)">
                        <g id="Group" transform="translate(126.9909, 0)" fill="#FFFFFF" fill-rule="nonzero">
                            <path d="M0,22.9676237 C15.9609872,19.255863 38.0869304,19.6609821 40.1132799,26.0511949 C42.1396293,32.4414076 18.1126935,50.9029401 3.29349112,58.4034915 C13.7587421,62.8384536 94.0091492,41.6997704 94.0091492,22.9676237 C94.0091492,4.23547693 21.4878868,-17.6493812 0,22.9676237 Z" id="Path"></path>
                        </g>
                        <g id="Group-Copy" transform="translate(47.0046, 29.5) scale(-1, 1) translate(-47.0046, -29.5)" fill="#FFFFFF" fill-rule="nonzero">
                            <path d="M0,22.9676237 C15.9609872,19.255863 41.0501136,20.7225849 43.076463,27.1127977 C45.1028125,33.5030104 18.1126935,50.9029401 3.29349112,58.4034915 C13.7587421,62.8384536 94.0091492,41.6997704 94.0091492,22.9676237 C94.0091492,4.23547693 21.4878868,-17.6493812 0,22.9676237 Z" id="Path"></path>
                        </g>
                    </g>
                </g>
            </g>
        </g>
    </g>
</svg>