<?xml version="1.0" encoding="UTF-8"?>
<svg width="256px" height="256px" viewBox="0 0 256 256" version="1.1" xmlns="http://www.w3.org/2000/svg" xmlns:xlink="http://www.w3.org/1999/xlink">
    <title>rust10x-vscode</title>
    <defs>
        <rect id="path-1" x="0" y="0" width="257" height="138"></rect>
    </defs>
    <g id="rust10x-vscode" stroke="none" stroke-width="1" fill="none" fill-rule="evenodd">
        <g id="Group" transform="translate(27, 146)">
            <rect id="Rectangle" fill="#0077B8" x="0" y="0" width="202" height="79.9871885" rx="9.44363395"></rect>
            <text id="10X" font-family="Lato-Black, Lato" font-size="65.8288407" font-weight="800" letter-spacing="6.07650824" fill="#FFFFFF">
                <tspan x="35.2694428" y="65">10X</tspan>
            </text>
        </g>
        <g id="ico_rust-2">
            <mask id="mask-2" fill="white">
                <use xlink:href="#path-1"></use>
            </mask>
            <g id="Rectangle-Copy"></g>
            <g id="Group-2" mask="url(#mask-2)">
                <g transform="translate(11, 16)">
                    <path d="M118.005248,0 C119.282252,0 120.467013,0.688155949 121.138243,1.81914948 L127.761582,12.9859403 C128.802038,13.0764805 129.839715,13.1852298 130.876886,13.3043483 L139.453766,3.70127244 C140.321866,2.73112682 141.609485,2.29739384 142.861217,2.55333424 C144.11674,2.81155078 145.146835,3.72985077 145.593143,4.98046861 L149.985451,17.2473985 C151.005943,17.5531613 152.013798,17.8730868 153.017105,18.2064162 L163.20711,10.5552652 C164.239985,9.77707491 165.588257,9.61142178 166.764678,10.1227968 C167.944637,10.6311369 168.787212,11.7446799 168.992423,13.0549835 L171.011924,25.9905956 C171.947754,26.4971653 172.873222,27.0206798 173.79313,27.5492524 L185.222737,22.1112776 C186.384753,21.5599436 187.733277,21.6717278 188.795721,22.4137526 C189.85867,23.1512252 190.477839,24.4139825 190.430327,25.7427481 L189.989327,38.8703155 C190.805366,39.5488611 191.61155,40.2413164 192.405097,40.9431293 L204.656555,37.9287482 C205.898432,37.62425 207.204246,38.0132187 208.102673,38.9530156 C209.00666,39.8963533 209.375887,41.2559734 209.082982,42.5538846 L206.192347,55.3407882 C206.867621,56.1667777 207.528994,57.0074357 208.180259,57.8561866 L220.758234,57.3986805 C222.038524,57.3483523 223.239965,57.9955376 223.946828,59.1040225 C224.657482,60.2069435 224.770196,61.619168 224.234678,62.834632 L219.027594,74.7646917 C219.532785,75.722192 220.036207,76.6880382 220.515874,77.6690588 L232.91012,79.7734857 C234.168929,79.9889612 235.233141,80.8683137 235.719631,82.0949056 C236.205616,83.3275671 236.054741,84.7324573 235.306431,85.8133756 L225.410585,95.2422038 L218.374612,110.273062 C189.184123,99.0745329 143.916674,97.6513393 122.287747,126.993515 C119.565654,126.930881 116.835501,126.848399 114.110001,126.754118 C91.1741062,95.996958 42.0874354,99.3709367 13.3828039,112.279056 C13.3577159,112.184016 13.3314424,112.087684 13.305191,111.991194 L13.1132557,111.281495 C12.8899276,110.450882 12.6689223,109.612256 12.4527083,108.778193 L12.268613,108.064694 C10.6842874,101.895799 9.40328201,96.1770186 9.43751116,96.0637051 L0.692944915,85.8133756 C-0.0498051309,84.7324573 -0.2077564,83.3275671 0.278733508,82.0949056 C0.76825608,80.865026 1.82994133,79.9861793 3.08900248,79.7734857 L15.4824908,77.6690588 C15.9662008,76.6880382 16.4688649,75.722192 16.9750671,74.7646917 L11.7641916,62.834632 C11.2357498,61.619168 11.3431567,60.2069435 12.0538111,59.1040225 C12.7629491,57.9955376 13.9744985,57.3612505 15.2439212,57.3986805 L27.8221494,57.8561866 C28.4713923,57.0074357 29.1337767,56.1700654 29.8032374,55.3407882 L26.9184154,42.5538846 C26.6267742,41.2559734 26.994232,39.8963533 27.9002405,38.9530156 C28.8009418,38.0132187 30.1052402,37.6265261 31.3498962,37.9287482 L43.599333,40.9431293 C44.396671,40.2413164 45.201338,39.5488611 46.0148502,38.8703155 L45.5761247,25.7427481 C45.5281075,24.4139825 46.1485401,23.1512252 47.2102254,22.4137526 C48.2673616,21.6717278 49.6219517,21.5576674 50.7824513,22.1112776 L62.2110469,27.5492524 C63.133735,27.0178978 64.0594558,26.4971653 64.9945273,25.9905956 L67.0155454,13.0549835 C67.2192394,11.7446799 68.0651,10.6311369 69.2402574,10.1227968 C70.4194584,9.60914563 71.7674777,9.77429295 72.8031326,10.5552652 L82.9898522,18.2064162 C83.9956859,17.87511 85.0040468,17.5531613 86.0217584,17.2473985 L90.4173527,4.98046861 C90.8623962,3.72985077 91.8932493,2.81509146 93.1482669,2.55333424 C94.3957029,2.29739384 95.6881233,2.73112682 96.5567289,3.70127244 L105.134873,13.3043483 C106.170275,13.1852298 107.212753,13.0764805 108.253715,12.9859403 L114.878571,1.81914948 C115.543988,0.688155949 116.731276,0 118.005248,0 Z M89.0841584,91.1805234 C96.9883921,91.1805234 103.39604,83.7224916 103.39604,74.5225432 C103.39604,65.3225947 96.9883921,57.8645629 89.0841584,57.8645629 C81.1799247,57.8645629 74.7722772,65.3225947 74.7722772,74.5225432 C74.7722772,83.7224916 81.1799247,91.1805234 89.0841584,91.1805234 Z M144.579208,91.1805234 C152.483442,91.1805234 158.891089,83.7224916 158.891089,74.5225432 C158.891089,65.3225947 152.483442,57.8645629 144.579208,57.8645629 C136.674974,57.8645629 130.267327,65.3225947 130.267327,74.5225432 C130.267327,83.7224916 136.674974,91.1805234 144.579208,91.1805234 Z" id="Path-2" fill="#FF5F29" fill-rule="nonzero"></path>
                    <ellipse id="Oval" fill="#131415" fill-rule="evenodd" cx="89.0841584" cy="74.5225432" rx="14.3118812" ry="16.6579802"></ellipse>
                    <ellipse id="Oval" fill="#131415" fill-rule="evenodd" cx="144.579208" cy="74.5225432" rx="14.3118812" ry="16.6579802"></ellipse>
                    <g id="eye-left" stroke-width="1" fill="none" fill-rule="evenodd" transform="translate(79, 60)">
                        <path d="M5.99974782,17 C2.68692473,17 0,13.1935686 0,8.5002597 C0,3.80539261 2.68692473,0 5.99974782,0 C9.31357962,0 12,3.80539261 12,8.5002597 C12,13.1935686 9.31357962,17 5.99974782,17 Z" id="Path" fill="#FFFFFF" fill-rule="nonzero"></path>
                    </g>
                    <g id="eye-right" stroke-width="1" fill="none" fill-rule="evenodd" transform="translate(135, 60)">
                        <path d="M5.99974782,17 C2.68692473,17 0,13.1935686 0,8.5002597 C0,3.80539261 2.68692473,0 5.99974782,0 C9.31357962,0 12,3.80539261 12,8.5002597 C12,13.1935686 9.31357962,17 5.99974782,17 Z" id="Path" fill="#FFFFFF" fill-rule="nonzero"></path>
                    </g>
                    <g id="Group-3" stroke-width="1" fill="none" fill-rule="evenodd" transform="translate(7, 113)">
                        <g id="Group" transform="translate(126.9909, 0)" fill="#FF5F29" fill-rule="nonzero">
                            <path d="M0,22.9676237 C15.9609872,19.255863 38.0869304,19.6609821 40.1132799,26.0511949 C42.1396293,32.4414076 18.1126935,50.9029401 3.29349112,58.4034915 C13.7587421,62.8384536 94.0091492,41.6997704 94.0091492,22.9676237 C94.0091492,4.23547693 21.4878868,-17.6493812 0,22.9676237 Z" id="Path"></path>
                        </g>
                        <g id="Group-Copy" transform="translate(47.0046, 29.5) scale(-1, 1) translate(-47.0046, -29.5)" fill="#FF5F29" fill-rule="nonzero">
                            <path d="M0,22.9676237 C15.9609872,19.255863 41.0501136,20.7225849 43.076463,27.1127977 C45.1028125,33.5030104 18.1126935,50.9029401 3.29349112,58.4034915 C13.7587421,62.8384536 94.0091492,41.6997704 94.0091492,22.9676237 C94.0091492,4.23547693 21.4878868,-17.6493812 0,22.9676237 Z" id="Path"></path>
                        </g>
                    </g>
                </g>
            </g>
        </g>
    </g>
</svg>